# xmcd
#
# Track frame offsets:
#	150
#	14234
#	27551
#	40520
#	53082
#	65295
#	78452
#	91349
#	104931
#	118848
#	130588
#	142736
#	156291
#	171031
#	184124
#	201654
#	215906
#	229658
#	242739
#	256098
#	269005
#
# Disc length: 3739 seconds
# Revision: 0
# Processed by: cddbd v1.5.2PL0 Copyright (c) Steve Scherf et al.
# Submitted via: dBpowerAMP V12.0
#
DISCID=370e9915
DTITLE=Howlin' Wolf - The Rough Guide To Howlin' Wolf
DYEAR=1900
DGENRE=Blues
TTITLE0=Smokestack Lightning
TTITLE1=Moanin' At Midnight
TTITLE2=I Asked For Water And She Gave Me Gasoline
TTITLE3=Spoonful
TTITLE4=How Many More Years
TTITLE5=Evil (Is Going On)
TTITLE6=Back Door Man
TTITLE7=My Baby Walked Off
TTITLE8=Riding in the Moonlight
TTITLE9=You Gonna Wreck My Life
TTITLE10=Don't Mess With My Baby
TTITLE11=The Wolf Is At Your Door
TTITLE12=My Troubles And Me
TTITLE13=Baby How Long
TTITLE14=Crying At Daybreak
TTITLE15=Worried All The Time
TTITLE16=Rockin' Daddy
TTITLE17=No Place To Go
TTITLE18=Well That's All Right
TTITLE19=Forty Four
TTITLE20=Saddle My Pony
EXTD=
EXTT0=
EXTT1=
EXTT2=
EXTT3=
EXTT4=
EXTT5=
EXTT6=
EXTT7=
EXTT8=
EXTT9=
EXTT10=
EXTT11=
EXTT12=
EXTT13=
EXTT14=
EXTT15=
EXTT16=
EXTT17=
EXTT18=
EXTT19=
EXTT20=
PLAYORDER=
